<?xml version="1.0" encoding="utf-8"?>
<!-- Generator: Adobe Illustrator 22.0.0, SVG Export Plug-In . SVG Version: 6.00 Build 0)  -->
<svg version="1.1" id="Capa_1" xmlns="http://www.w3.org/2000/svg" xmlns:xlink="http://www.w3.org/1999/xlink" x="0px" y="0px"
	 viewBox="0 0 292.6 310.4" style="enable-background:new 0 0 292.6 310.4;" xml:space="preserve">
<style type="text/css">
	.st0{fill:#FFFFFF;}
</style>
<g>
	<g id="XMLID_1_">
		<g>
			<g>
				<path class="st0" d="M274.7,120.9v171h-55v-171H274.7 M283.7,111.9c-24.2,0-48.5,0-73,0c0,63.4,0,126.2,0,189
					c24.3,0,48.7,0,73,0C283.7,237.9,283.7,174.9,283.7,111.9L283.7,111.9z"/>
			</g>
			<g>
				<path class="st0" d="M274.7,20.9v55h-55v-55H274.7 M283.7,11.9c-24.3,0-48.6,0-73,0c0,24.2,0,48.5,0,73c24.8,0,48.9,0,73,0
					C283.7,60.6,283.7,36.2,283.7,11.9L283.7,11.9z"/>
			</g>
			<g>
				<path class="st0" d="M74.9,120.9v107.2v9h9h90.8v54.8h-155v-171H74.9 M83.9,111.9c-24.7,0-48.9,0-73.2,0c0,63,0,126,0,189
					c57.7,0,115.3,0,173,0c0-24.1,0-48.3,0-72.8c-33.2,0-66.3,0-99.8,0C83.9,189.3,83.9,150.9,83.9,111.9L83.9,111.9z"/>
			</g>
			<g>
				<path class="st0" d="M174.7,20.9v55h-155v-55H174.7 M183.7,11.9c-57.6,0-115.3,0-173,0c0,24.3,0,48.7,0,73c57.6,0,115.2,0,173,0
					C183.7,60.2,183.7,36,183.7,11.9L183.7,11.9z"/>
			</g>
			<g>
				<path class="st0" d="M174.6,121.2v70.7h-54.8v-70.7H174.6 M183.6,112.2c-24.5,0-48.5,0-72.8,0c0,29.2,0,58.1,0,87
					c1.7,1.7,3.8,1.7,6,1.7c21.1,0,42.3,0,63.4,0c0.5,0,1,0.1,1.5,0.1c0.7,0,1.4-0.1,1.9-0.8C183.6,171,183.6,141.8,183.6,112.2
					L183.6,112.2z"/>
			</g>
		</g>
	</g>
</g>
</svg>
