<svg version="1.2" xmlns="http://www.w3.org/2000/svg" viewBox="0 0 1637 305" width="1637" height="305">
	<title>logoTALENTIA_svg_wh2_beta_edit-svg</title>
	<style>
		.s0 { fill: #333333 } 
		.s1 { fill: #cccccc } 
		.s2 { fill: #001f3f } 
		.s3 { fill: #f0cc00 } 
	</style>
	<g id="Layer">
		<g id="XMLID_1_">
			<g id="Layer">
				<path id="Layer" fill-rule="evenodd" class="s0" d="m1626.7 107.7c0 62.5 0 125.2 0 188.3-8.5 0-17.2 0-26.4 0 0-10.2 0-20.6 0-32-2.4 3-4 5.2-5.8 7.3-10.9 12.4-24.6 20.1-40.8 23.2-18 3.4-35.8 2.8-53.1-3.7-24.9-9.4-41.2-27.5-50.5-52.1-6.4-16.8-7.4-34.3-5.2-52.1 2.3-18.5 9.1-35 21.2-49.2 14.4-17 32.9-26.5 55-29.2 12.2-1.5 24.3-1.4 36.2 1.6 16.4 4.1 29.7 13 40 26.4 0.6 0.9 1 2.2 2.7 2.7 0-10.5 0-20.7 0-31.2 8.9 0 17.6 0 26.7 0zm-25.6 92.4c0.3-4.9-0.5-11.5-2.1-18-4.6-18.8-14.5-33.9-32-42.9-13.5-7-28-8.3-42.7-5.5-22.9 4.3-38.7 17.9-47.1 39.4-7.2 18.3-7.2 37.2-0.8 55.7 5.8 16.9 17 29.7 33.6 37 11.8 5.2 24.3 6.4 37.1 4.8 15.2-1.9 27.9-8.4 37.8-20.1 11.7-14.1 16.3-30.6 16.2-50.4z"/>
				<path id="Layer" class="s0" d="m1396.8 53.6c0 8.7 0 17.4 0 26.4-8.7 0-17.5 0-26.6 0 0-8.9 0-17.5 0-26.4 8.8 0 17.6 0 26.6 0z"/>
				<path id="Layer" class="s0" d="m1396.7 107.4c0 62.8 0 125.6 0 188.6-8.7 0-17.4 0-26.4 0 0-62.6 0-125.4 0-188.6 8.9 0 17.5 0 26.4 0z"/>
				<path id="Layer" class="s0" d="m1329.8 80.3c0 9 0 17.7 0 26.8-14 0-28.1 0-42.5 0 0 63.1 0 125.8 0 188.9-9.1 0-17.8 0-27 0 0-62.6 0-125.4 0-188.5-13.1 0-25.8 0-38.9 0 0-9.1 0-17.9 0-27 12.6 0 25.4 0 38.5 0 0-24.5 0-48.5 0-72.9 9.1 0 17.9 0 27 0 0 24 0 48.1 0 72.7 14.7 0 28.7 0 42.9 0z"/>
				<path id="Layer" class="s0" d="m1188.6 288.1c0 1.6 0.4 3.3-0.4 5.1q-13.5 0-27.3 0c-0.9-1.8-0.4-3.6-0.4-5.4q0-49.5 0-99c0-6.5-0.6-12.9-2.2-19.3-5-19.7-21.8-34.5-42.6-36.5-19.5-1.8-36.1 3.6-49.4 18.3-9.4 10.4-13.1 23-13.2 36.7-0.1 34.2 0 68.3 0 102.5-0.1 1.7-0.1 3.5-0.1 5.7-9.3 0-17.9 0-26.8 0 0-62.9 0-125.6 0-188.6 8.8 0 17.5 0 26.6 0 0 9.8 0 19.5 0 29.2 1.9 0.6 2.2-0.9 2.8-1.7 4.8-5.6 10.2-10.5 16-14.9 11.7-8.8 24.8-13.1 39.5-12.9 16.3 0.2 31.8 3 45.3 12.8 16.6 12.1 26.9 28.3 30.5 48.6 1.3 7.2 1.7 14.5 1.7 21.9q0 48.7 0 97.5z"/>
				<path id="Layer" fill-rule="evenodd" class="s0" d="m979 176.7c2.7 11.4 3 23.1 2.8 34.7 0.1 0.4-0.2 0.8-0.4 1.8-51.4 0-102.7 0-154.4 0-0.2 4.9 1.1 9 2.5 13 8.1 24.1 24.3 39.4 49.5 43.9 17 3 33.5 1.1 48.3-8.7 7.8-5.2 13.5-12.3 18.1-20.7 10 0 20.1 0 30.5 0-3.6 9.8-8.7 18.5-15.3 26.3-14.2 16.7-32.3 26.2-54.2 28.6-18.7 2-36.9 1-54.3-6.6-24.9-10.8-41.7-29.5-49.7-55.3-7.4-23.9-6.9-48.1 2.6-71.4 11.8-28.9 33.2-46.8 64-52.9 19.5-3.9 38.9-3 57.4 4.6 28.4 11.6 45.5 33.1 52.6 62.7zm-151.7 10.2c41.8 0 83.2 0 124.6 0-1.4-21.3-19.1-51.9-57.6-54.3-36.2-2.2-62.5 21.4-67 54.3z"/>
				<path id="Layer" class="s0" d="m750.8 7.6c0 96 0 192.1 0 288.6-9 0-17.6 0-26.5 0 0-96.1 0-192.2 0-288.6 8.6 0 17.4 0 26.5 0z"/>
				<path id="Layer" fill-rule="evenodd" class="s0" d="m665.7 107.6c0 62.7 0 125.4 0 188.4-8.7 0-17.4 0-26.7 0 0.1-10.1 0.1-20.2 0.1-30.5-2.1 0.2-2.5 1.7-3.3 2.7-12.6 16-29.2 24.7-49.3 27.3-16.1 2.1-31.9 1.2-47.2-4.6-23.8-9-40.4-25.8-49.3-49.2-11.6-30.5-10.8-61.1 5.1-90.1 14-25.4 35.9-39.8 64.9-43.3 12.7-1.5 25.2-1.3 37.6 2.1 15.6 4.2 28.3 12.9 38.1 25.7 0.8 1 1.2 2.4 3.1 2.9 0-10.5 0-20.8 0-31.4 9.2 0 17.9 0 26.9 0zm-32.8 128c8.2-17.5 8.9-35.9 4.5-54.6-3.5-14.9-11.1-27.4-23.4-36.7-13.9-10.5-29.7-13.2-46.7-11.2-20 2.3-35.3 12.1-46 28.9-7.7 12.1-10.8 25.6-10.4 39.9-0.4 12.7 2.1 24.8 8.2 36 14.9 27.5 42.6 37.2 71.2 31.9 20.2-3.8 34.1-16 42.6-34.2z"/>
				<path id="Layer" class="s0" d="m457.8 80.1c0 9.1 0 17.9 0 27-14 0-28.1 0-42.5 0 0 63.1 0 125.8 0 188.9-9.2 0-17.9 0-27.2 0 0-62.9 0-125.5 0-188.5-12.9 0-25.7 0-38.7 0 0-9.1 0-17.9 0-27 12.6 0 25.4 0 38.5 0 0-24.5 0-48.5 0-72.9 9.1 0 17.9 0 27 0 0 24 0 48 0 72.5 14.5 0 28.5 0 42.9 0z"/>
				<path id="Layer" class="s1" d="m282.8 7.7c0 24.3 0 48.2 0 72.4q-36.2 0-72 0c-1-3.5-1.4-59.8-0.5-72.4 24 0 48 0 72.5 0z"/>
				<path id="Layer" class="s2" d="m282.7 107.4c0 62.8 0 125.6 0 188.6-24 0-48.1 0-72.4 0 0-62.6 0-125.4 0-188.6 24.2 0 48.2 0 72.4 0z"/>
				<path id="Layer" class="s3" d="m182.3 107.5c0.8 4 1.1 78 0.4 88.6-24 0-48.1 0-72.1 0-0.8-3.9-1.1-77.9-0.4-88.6 24.2 0 48.2 0 72.1 0z"/>
				<path id="Layer" class="s2" d="m182.7 223.3c0 24.3 0 48.4 0 72.7-57.3 0-114.7 0-172.4 0 0-62.7 0-125.4 0-188.4 24 0 48.1 0 72.5 0 0 38.3 0 76.8 0 115.7 33.7 0 66.7 0 99.9 0z"/>
				<path id="Layer" class="s3" d="m182.6 7.7c0 23.9 0 47.9 0 72.5-57.5 0-114.7 0-172.3 0 0-24.1 0-48.1 0-72.5 57.2 0 114.6 0 172.3 0z"/>
			</g>
			<g id="Layer">
			</g>
		</g>
	</g>
	<path id="beta" fill-rule="evenodd" class="s0" d="m1539.9 35.1q0 15.4-10.9 15.4-3.4 0-5.6-1.2-2.2-1.2-3.6-3.9h-0.1q0 0.9-0.1 2.6-0.1 1.7-0.1 2h-4.8q0.2-1.5 0.2-6.1v-34.5h4.9v11.6q0 1.8-0.1 4.2h0.1q1.4-2.9 3.6-4.1 2.3-1.2 5.6-1.2 5.6 0 8.2 3.7 2.7 3.8 2.7 11.5zm-5.2 0.1q0-6.2-1.6-8.9-1.7-2.6-5.4-2.6-4.1 0-6 2.8-1.9 2.9-1.9 9 0 5.9 1.8 8.6 1.9 2.8 6.1 2.8 3.7 0 5.4-2.7 1.6-2.8 1.6-9zm36.2 1h-21.1q0 5.1 2.1 7.9 2.1 2.8 6.1 2.8 3.2 0 5.2-1.3 1.9-1.3 2.6-3.3l4.3 1.2q-2.7 7-12.1 7-6.5 0-10-3.9-3.4-3.9-3.4-11.6 0-7.3 3.4-11.2 3.5-3.9 9.9-3.9 13 0 13 15.7zm-21.1-3.8h16q-0.4-4.7-2.4-6.8-1.9-2.2-5.6-2.2-3.6 0-5.7 2.5-2.1 2.3-2.3 6.5zm38.7 13.7v3.6q-2.4 0.7-4.9 0.7-6 0-6-6.7v-19.8h-3.4v-3.5h3.6l1.5-6.7h3.3v6.7h5.4v3.5h-5.4v18.7q0 2.1 0.7 3 0.7 0.9 2.4 0.9 1 0 2.8-0.4zm11.8 4.4q-4.5 0-6.7-2.4-2.3-2.3-2.3-6.4 0-4.6 3-7.1 3.1-2.4 9.8-2.6l6.6-0.1v-1.6q0-3.6-1.5-5.2-1.5-1.5-4.8-1.5-3.3 0-4.8 1.1-1.5 1.1-1.8 3.6l-5.2-0.5q1.3-8 11.9-8 5.6 0 8.4 2.6 2.8 2.5 2.8 7.4v12.7q0 2.2 0.6 3.3 0.6 1.1 2.2 1.1 0.7 0 1.6-0.2v3.1q-1.9 0.4-3.8 0.4-2.7 0-4-1.4-1.2-1.5-1.4-4.5h-0.2q-1.9 3.4-4.4 4.8-2.5 1.4-6 1.4zm1.1-3.7q2.7 0 4.8-1.2 2.1-1.3 3.3-3.4 1.2-2.2 1.2-4.4v-2.5l-5.4 0.2q-3.4 0-5.2 0.7-1.8 0.6-2.8 2-0.9 1.4-0.9 3.6 0 2.4 1.3 3.7 1.3 1.3 3.7 1.3z"/>
</svg>